<svg width="97" height="98" viewBox="0 0 97 98" fill="none" xmlns="http://www.w3.org/2000/svg">
<path d="M37.5781 45.8161C27.7559 55.1616 26.4528 64.7328 27.029 68.3503C27.8769 71.9268 29.6437 73.0022 30.4211 73.0928C33.4871 74.9056 43.4263 72.2493 48.0127 70.6946C50.5967 69.8192 56.4052 71.2189 58.9865 72.0282C65.7604 74.4408 67.6977 74.245 69.9049 72.4064C75.3154 67.8996 72.0042 59.6354 69.0464 55.2013C63.3188 46.6814 55.6366 42.0167 52.5114 40.7494C46.4033 38.5579 40.0108 43.2141 37.5781 45.8161Z" fill="#CC3F36"/>
<ellipse rx="7.85038" ry="11.3599" transform="matrix(-0.909328 -0.416079 0.273312 -0.961926 56.7172 26.7593)" fill="#CC3F36"/>
<ellipse rx="7.139" ry="9.25704" transform="matrix(-0.72751 -0.686097 0.538837 -0.84241 73.196 40.4968)" fill="#CC3F36"/>
<ellipse rx="7.51528" ry="11.3836" transform="matrix(-0.886969 0.46183 -0.365296 -0.930891 35.8712 29.515)" fill="#CC3F36"/>
<ellipse rx="7.52142" ry="8.93999" transform="matrix(-0.331506 0.943453 -0.875901 -0.48249 21.2401 45.9461)" fill="#CC3F36"/>
<path d="M32.9902 56.2476C33.1102 56.2276 33.2436 56.2143 33.3902 56.2076C33.5436 56.1943 33.6969 56.1843 33.8502 56.1776C34.0102 56.1643 34.1636 56.1576 34.3102 56.1576C34.4569 56.151 34.5869 56.1476 34.7002 56.1476C35.2536 56.1476 35.7136 56.2343 36.0802 56.4076C36.4536 56.5743 36.7502 56.8143 36.9702 57.1276C37.1969 57.4343 37.3569 57.8043 37.4502 58.2376C37.5436 58.671 37.5902 59.1543 37.5902 59.6876C37.5902 60.1743 37.5436 60.641 37.4502 61.0876C37.3636 61.5276 37.2069 61.9176 36.9802 62.2576C36.7536 62.591 36.4469 62.8576 36.0602 63.0576C35.6736 63.2576 35.1869 63.3576 34.6002 63.3576C34.5136 63.3576 34.3969 63.3543 34.2502 63.3476C34.1036 63.341 33.9502 63.331 33.7902 63.3176C33.6302 63.311 33.4769 63.301 33.3302 63.2876C33.1836 63.281 33.0702 63.271 32.9902 63.2576V56.2476ZM34.8302 57.3076C34.7236 57.3076 34.6136 57.311 34.5002 57.3176C34.3936 57.3176 34.3102 57.3243 34.2502 57.3376V62.1576C34.2702 62.1643 34.3036 62.171 34.3502 62.1776C34.4036 62.1776 34.4569 62.181 34.5102 62.1876C34.5702 62.1876 34.6236 62.191 34.6702 62.1976C34.7236 62.1976 34.7602 62.1976 34.7802 62.1976C35.0802 62.1976 35.3269 62.1276 35.5202 61.9876C35.7136 61.8476 35.8636 61.661 35.9702 61.4276C36.0836 61.1943 36.1602 60.9276 36.2002 60.6276C36.2469 60.321 36.2702 60.001 36.2702 59.6676C36.2702 59.361 36.2502 59.0643 36.2102 58.7776C36.1769 58.491 36.1069 58.241 36.0002 58.0276C35.9002 57.8076 35.7536 57.6343 35.5602 57.5076C35.3736 57.3743 35.1302 57.3076 34.8302 57.3076ZM38.1418 60.7476C38.1418 59.861 38.3151 59.201 38.6618 58.7676C39.0085 58.3343 39.4918 58.1176 40.1118 58.1176C40.7785 58.1176 41.2751 58.3376 41.6018 58.7776C41.9285 59.2176 42.0918 59.8743 42.0918 60.7476C42.0918 61.641 41.9185 62.3043 41.5718 62.7376C41.2251 63.1643 40.7385 63.3776 40.1118 63.3776C38.7985 63.3776 38.1418 62.501 38.1418 60.7476ZM39.3718 60.7476C39.3718 61.2476 39.4285 61.6343 39.5418 61.9076C39.6551 62.181 39.8451 62.3176 40.1118 62.3176C40.3651 62.3176 40.5518 62.201 40.6718 61.9676C40.7985 61.7276 40.8618 61.321 40.8618 60.7476C40.8618 60.2343 40.8051 59.8443 40.6918 59.5776C40.5785 59.311 40.3851 59.1776 40.1118 59.1776C39.8785 59.1776 39.6951 59.2976 39.5618 59.5376C39.4351 59.771 39.3718 60.1743 39.3718 60.7476ZM46.3549 63.2476C46.3549 63.9743 46.1882 64.5076 45.8549 64.8476C45.5216 65.1943 45.0582 65.3676 44.4649 65.3676C44.0516 65.3676 43.7282 65.3343 43.4949 65.2676C43.2616 65.2076 43.0816 65.141 42.9549 65.0676L43.2049 64.0576C43.3516 64.1176 43.5082 64.1743 43.6749 64.2276C43.8482 64.281 44.0516 64.3076 44.2849 64.3076C44.6249 64.3076 44.8582 64.2143 44.9849 64.0276C45.1182 63.8476 45.1849 63.571 45.1849 63.1976V62.9276H45.1549C45.0616 63.061 44.9349 63.161 44.7749 63.2276C44.6216 63.2943 44.4216 63.3276 44.1749 63.3276C43.6482 63.3276 43.2516 63.131 42.9849 62.7376C42.7249 62.3376 42.5949 61.7076 42.5949 60.8476C42.5949 59.921 42.7749 59.2376 43.1349 58.7976C43.5016 58.3576 44.0216 58.1376 44.6949 58.1376C45.0549 58.1376 45.3782 58.1676 45.6649 58.2276C45.9516 58.281 46.1816 58.3476 46.3549 58.4276V63.2476ZM44.5049 62.3076C44.6849 62.3076 44.8249 62.2643 44.9249 62.1776C45.0316 62.091 45.1116 61.9676 45.1649 61.8076V59.3076C45.0916 59.2743 45.0082 59.2476 44.9149 59.2276C44.8282 59.2076 44.7249 59.1976 44.6049 59.1976C44.3582 59.1976 44.1649 59.3176 44.0249 59.5576C43.8916 59.7976 43.8249 60.211 43.8249 60.7976C43.8249 61.8043 44.0516 62.3076 44.5049 62.3076ZM51.4385 57.4076H49.7785V63.2476H48.5185V57.4076H46.8585V56.2476H51.4385V57.4076ZM54.2701 62.8776C54.1035 63.0243 53.8768 63.1443 53.5901 63.2376C53.3035 63.331 53.0035 63.3776 52.6901 63.3776C52.3435 63.3776 52.0435 63.3176 51.7901 63.1976C51.5435 63.0776 51.3401 62.9043 51.1801 62.6776C51.0201 62.451 50.9001 62.1776 50.8201 61.8576C50.7468 61.531 50.7101 61.161 50.7101 60.7476C50.7101 59.8476 50.8868 59.1843 51.2401 58.7576C51.6001 58.3243 52.0968 58.1076 52.7301 58.1076C52.9435 58.1076 53.1501 58.141 53.3501 58.2076C53.5501 58.2676 53.7268 58.3743 53.8801 58.5276C54.0401 58.6743 54.1668 58.8743 54.2601 59.1276C54.3601 59.3743 54.4101 59.6876 54.4101 60.0676C54.4101 60.2143 54.4001 60.371 54.3801 60.5376C54.3668 60.7043 54.3435 60.8843 54.3101 61.0776H51.8801C51.8935 61.491 51.9801 61.8076 52.1401 62.0276C52.3001 62.2476 52.5568 62.3576 52.9101 62.3576C53.1235 62.3576 53.3168 62.3243 53.4901 62.2576C53.6701 62.191 53.8068 62.121 53.9001 62.0476L54.2701 62.8776ZM52.7101 59.1276C52.4568 59.1276 52.2668 59.231 52.1401 59.4376C52.0135 59.6376 51.9401 59.921 51.9201 60.2876H53.3001C53.3201 59.9076 53.2801 59.621 53.1801 59.4276C53.0801 59.2276 52.9235 59.1276 52.7101 59.1276ZM55.1775 58.5476C55.3775 58.4276 55.6275 58.331 55.9275 58.2576C56.2275 58.1843 56.5675 58.1476 56.9475 58.1476C57.5142 58.1476 57.9075 58.2943 58.1275 58.5876C58.3542 58.881 58.4675 59.2976 58.4675 59.8376C58.4675 60.151 58.4575 60.461 58.4375 60.7676C58.4242 61.0676 58.4142 61.3643 58.4075 61.6576C58.4008 61.9443 58.4042 62.2243 58.4175 62.4976C58.4375 62.7643 58.4842 63.0176 58.5575 63.2576H57.5875L57.3975 62.6476H57.3575C57.2508 62.841 57.1008 63.001 56.9075 63.1276C56.7142 63.2543 56.4708 63.3176 56.1775 63.3176C55.7842 63.3176 55.4742 63.1876 55.2475 62.9276C55.0208 62.661 54.9075 62.3076 54.9075 61.8676C54.9075 61.2676 55.1208 60.841 55.5475 60.5876C55.9742 60.3343 56.5508 60.2276 57.2775 60.2676C57.3108 59.881 57.2842 59.601 57.1975 59.4276C57.1175 59.2543 56.9408 59.1676 56.6675 59.1676C56.4675 59.1676 56.2608 59.191 56.0475 59.2376C55.8342 59.2843 55.6442 59.351 55.4775 59.4376L55.1775 58.5476ZM56.6075 62.2976C56.7875 62.2976 56.9342 62.2543 57.0475 62.1676C57.1608 62.0743 57.2442 61.9743 57.2975 61.8676V61.0376C57.1442 61.0176 56.9975 61.0143 56.8575 61.0276C56.7175 61.041 56.5942 61.071 56.4875 61.1176C56.3808 61.1643 56.2942 61.2343 56.2275 61.3276C56.1675 61.4143 56.1375 61.5276 56.1375 61.6676C56.1375 61.8743 56.1775 62.031 56.2575 62.1376C56.3442 62.2443 56.4608 62.2976 56.6075 62.2976ZM62.2483 62.9776C62.0817 63.111 61.8817 63.211 61.6483 63.2776C61.415 63.3443 61.1817 63.3776 60.9483 63.3776C60.6083 63.3776 60.3217 63.3176 60.0883 63.1976C59.8617 63.071 59.675 62.8943 59.5283 62.6676C59.3817 62.4343 59.275 62.1576 59.2083 61.8376C59.1483 61.511 59.1183 61.1476 59.1183 60.7476C59.1183 59.8743 59.275 59.2176 59.5883 58.7776C59.9017 58.3376 60.3617 58.1176 60.9683 58.1176C61.2683 58.1176 61.5117 58.1443 61.6983 58.1976C61.8917 58.251 62.0617 58.3176 62.2083 58.3976L61.9283 59.3876C61.8083 59.3276 61.6917 59.2843 61.5783 59.2576C61.4717 59.2243 61.3417 59.2076 61.1883 59.2076C60.9083 59.2076 60.6983 59.331 60.5583 59.5776C60.4183 59.8176 60.3483 60.2076 60.3483 60.7476C60.3483 61.201 60.4183 61.571 60.5583 61.8576C60.705 62.1443 60.935 62.2876 61.2483 62.2876C61.415 62.2876 61.555 62.2676 61.6683 62.2276C61.7883 62.181 61.8983 62.1243 61.9983 62.0576L62.2483 62.9776ZM65.2744 63.2476V60.2276C65.2744 59.8676 65.2311 59.6076 65.1444 59.4476C65.0644 59.2876 64.9144 59.2076 64.6944 59.2076C64.5344 59.2076 64.3878 59.2643 64.2544 59.3776C64.1211 59.491 64.0311 59.6343 63.9844 59.8076V63.2476H62.7944V56.2476H63.9844V58.6976H64.0144C64.1478 58.5243 64.3078 58.3843 64.4944 58.2776C64.6878 58.171 64.9278 58.1176 65.2144 58.1176C65.4211 58.1176 65.6011 58.1476 65.7544 58.2076C65.9078 58.2676 66.0378 58.3676 66.1444 58.5076C66.2511 58.6476 66.3311 58.8376 66.3844 59.0776C66.4378 59.311 66.4644 59.6076 66.4644 59.9676V63.2476H65.2744Z" fill="white"/>
</svg>
