<svg width="301" height="77" viewBox="0 0 301 77" fill="none" xmlns="http://www.w3.org/2000/svg">
<path d="M15.0894 17.185C9.34487 18.8314 6.88243 22.3046 6.36927 23.8355C5.9706 25.4058 6.44138 26.1865 6.7266 26.3805C7.55444 27.7145 11.9795 28.7052 14.0886 29.0338C15.2767 29.2192 17.2603 30.9514 18.1035 31.7943C20.2575 34.1193 21.0543 34.4382 22.2919 34.1704C25.3253 33.5139 25.7184 29.6096 25.4677 27.2736C24.9689 22.7762 22.9197 19.3861 21.9574 18.2532C20.0184 16.1505 16.5708 16.6649 15.0894 17.185Z" fill="black" fill-opacity="0.15"/>
<ellipse rx="3.46018" ry="5.00706" transform="matrix(-0.613326 -0.78983 0.687642 -0.72605 26.4556 13.646)" fill="black" fill-opacity="0.15"/>
<ellipse rx="3.14662" ry="4.08018" transform="matrix(-0.327148 -0.944973 0.867651 -0.497174 30.0898 22.3758)" fill="black" fill-opacity="0.15"/>
<ellipse rx="3.31247" ry="5.01751" transform="matrix(-0.999999 -0.0013449 0.107244 -0.994233 17.7493 10.4682)" fill="black" fill-opacity="0.15"/>
<ellipse rx="3.31518" ry="3.94044" transform="matrix(-0.730669 0.682732 -0.552949 -0.833215 8.68003 13.9014)" fill="black" fill-opacity="0.15"/>
<path d="M52.0734 51.3404C46.0985 51.444 42.821 54.1616 41.9291 55.5074C41.1376 56.921 41.3903 57.7969 41.6156 58.0582C42.07 59.561 46.0878 61.6632 48.04 62.5265C49.1397 63.0131 50.6073 65.1997 51.2037 66.2321C52.6825 69.0354 53.3696 69.5496 54.6343 69.6112C57.7343 69.7622 59.1245 66.0927 59.487 63.7714C60.1692 59.2982 59.0672 55.4932 58.431 54.1498C57.1022 51.6169 53.6389 51.2215 52.0734 51.3404Z" fill="black" fill-opacity="0.15"/>
<ellipse rx="3.46018" ry="5.00706" transform="matrix(-0.388005 -0.921657 0.852126 -0.523336 63.9683 50.8638)" fill="black" fill-opacity="0.15"/>
<ellipse rx="3.14662" ry="4.08018" transform="matrix(-0.0714241 -0.997446 0.966765 -0.255668 65.2192 60.2368)" fill="black" fill-opacity="0.15"/>
<ellipse rx="3.31247" ry="5.01751" transform="matrix(-0.965577 -0.260118 0.360916 -0.932598 56.3811 45.541)" fill="black" fill-opacity="0.15"/>
<ellipse rx="3.31518" ry="3.94044" transform="matrix(-0.882476 0.470357 -0.318456 -0.947938 46.7323 46.5099)" fill="black" fill-opacity="0.15"/>
<path d="M112.927 20.4788C108.776 24.7769 108.38 29.016 108.701 30.5983C109.141 32.1576 109.939 32.5983 110.283 32.6237C111.667 33.3651 115.994 32.0105 117.985 31.2405C119.107 30.807 121.691 31.3154 122.842 31.6238C125.87 32.5603 126.72 32.438 127.658 31.5873C129.957 29.5021 128.345 25.9243 126.96 24.0266C124.279 20.3812 120.809 18.4698 119.409 17.9698C116.679 17.1184 113.95 19.2877 112.927 20.4788Z" fill="black" fill-opacity="0.15"/>
<ellipse rx="3.46018" ry="5.00706" transform="matrix(-0.926071 -0.377349 0.23249 -0.972599 121.001 11.7308)" fill="black" fill-opacity="0.15"/>
<ellipse rx="3.14662" ry="4.08018" transform="matrix(-0.755805 -0.654796 0.502821 -0.864391 128.514 17.474)" fill="black" fill-opacity="0.15"/>
<ellipse rx="3.31247" ry="5.01751" transform="matrix(-0.866697 0.498835 -0.40424 -0.914653 111.873 13.3319)" fill="black" fill-opacity="0.15"/>
<ellipse rx="3.31518" ry="3.94044" transform="matrix(-0.291412 0.956598 -0.895475 -0.445111 105.735 20.8398)" fill="black" fill-opacity="0.15"/>
<path d="M163.927 53.4788C159.776 57.7769 159.38 62.0161 159.701 63.5984C160.141 65.1576 160.939 65.5984 161.283 65.6238C162.667 66.3651 166.994 65.0106 168.985 64.2406C170.107 63.8071 172.691 64.3155 173.842 64.6238C176.87 65.5604 177.72 65.4381 178.658 64.5874C180.957 62.5021 179.345 58.9244 177.96 57.0267C175.279 53.3812 171.809 51.4699 170.409 50.9699C167.679 50.1184 164.95 52.2877 163.927 53.4788Z" fill="black" fill-opacity="0.15"/>
<ellipse rx="3.46018" ry="5.00706" transform="matrix(-0.926071 -0.377349 0.23249 -0.972599 172.001 44.7308)" fill="black" fill-opacity="0.15"/>
<ellipse rx="3.14662" ry="4.08018" transform="matrix(-0.755805 -0.654796 0.502821 -0.864391 179.514 50.474)" fill="black" fill-opacity="0.15"/>
<ellipse rx="3.31247" ry="5.01751" transform="matrix(-0.866697 0.498835 -0.40424 -0.914653 162.873 46.332)" fill="black" fill-opacity="0.15"/>
<ellipse rx="3.31518" ry="3.94044" transform="matrix(-0.291412 0.956598 -0.895475 -0.445111 156.735 53.8399)" fill="black" fill-opacity="0.15"/>
<path d="M225.829 21.7718C222.931 26.998 223.646 31.1951 224.365 32.6404C225.194 34.0327 226.079 34.2519 226.418 34.1874C227.946 34.5453 231.776 32.1168 233.499 30.8578C234.471 30.1488 237.098 29.9711 238.291 29.9708C241.458 30.0917 242.247 29.7538 242.932 28.6894C244.613 26.0802 242.13 23.0415 240.301 21.5669C236.768 18.7395 232.922 17.7913 231.441 17.6707C228.583 17.5549 226.509 20.3565 225.829 21.7718Z" fill="black" fill-opacity="0.15"/>
<ellipse rx="3.46018" ry="5.00706" transform="matrix(-0.992181 -0.124807 -0.0271591 -0.999631 231.364 11.2322)" fill="black" fill-opacity="0.15"/>
<ellipse rx="3.14662" ry="4.08018" transform="matrix(-0.899526 -0.436868 0.261967 -0.965077 240.106 14.8354)" fill="black" fill-opacity="0.15"/>
<ellipse rx="3.31247" ry="5.01751" transform="matrix(-0.708057 0.706155 -0.627196 -0.778862 222.96 15.1414)" fill="black" fill-opacity="0.15"/>
<ellipse rx="3.31518" ry="3.94044" transform="matrix(-0.0338965 0.999425 -0.980166 -0.198178 218.975 23.982)" fill="black" fill-opacity="0.15"/>
<path d="M274.829 55.7718C271.931 60.998 272.646 65.1952 273.365 66.6405C274.194 68.0328 275.079 68.2519 275.418 68.1874C276.946 68.5453 280.776 66.1168 282.499 64.8579C283.471 64.1488 286.098 63.9711 287.291 63.9709C290.458 64.0918 291.247 63.7538 291.932 62.6894C293.613 60.0802 291.13 57.0415 289.301 55.567C285.768 52.7396 281.922 51.7914 280.441 51.6707C277.583 51.555 275.509 54.3566 274.829 55.7718Z" fill="black" fill-opacity="0.15"/>
<ellipse rx="3.46018" ry="5.00706" transform="matrix(-0.992181 -0.124807 -0.0271591 -0.999631 280.364 45.2322)" fill="black" fill-opacity="0.15"/>
<ellipse rx="3.14662" ry="4.08018" transform="matrix(-0.899526 -0.436868 0.261967 -0.965077 289.106 48.8354)" fill="black" fill-opacity="0.15"/>
<ellipse rx="3.31247" ry="5.01751" transform="matrix(-0.708057 0.706155 -0.627196 -0.778862 271.96 49.1415)" fill="black" fill-opacity="0.15"/>
<ellipse rx="3.31518" ry="3.94044" transform="matrix(-0.0338965 0.999425 -0.980166 -0.198178 267.975 57.9821)" fill="black" fill-opacity="0.15"/>
</svg>
