<svg width="23" height="23" viewBox="0 0 23 23" fill="none" xmlns="http://www.w3.org/2000/svg">
<path d="M11.945 9.17554C9.73229 7.03821 7.54993 6.83439 6.73534 6.99964C5.93262 7.22611 5.70573 7.63695 5.69263 7.81407C5.311 8.52652 6.00834 10.7544 6.40472 11.7793C6.6279 12.3567 6.36618 13.687 6.20743 14.2799C5.7253 15.8387 5.78824 16.2761 6.22619 16.7588C7.29972 17.9423 9.14159 17.1125 10.1185 16.3995C11.9953 15.0195 12.9792 13.2332 13.2366 12.5126C13.675 11.1068 12.5582 9.70215 11.945 9.17554Z" fill="black" fill-opacity="0.15"/>
<ellipse rx="1.78134" ry="2.5777" transform="matrix(0.377349 -0.926071 0.972599 0.23249 16.4486 13.3321)" fill="black" fill-opacity="0.15"/>
<ellipse rx="1.61992" ry="2.10053" transform="matrix(0.654796 -0.755805 0.864391 0.502821 13.4919 17.1995)" fill="black" fill-opacity="0.15"/>
<ellipse rx="1.7053" ry="2.58308" transform="matrix(-0.498835 -0.866697 0.914653 -0.40424 15.6243 8.6325)" fill="black" fill-opacity="0.15"/>
<ellipse rx="1.7067" ry="2.02859" transform="matrix(-0.956598 -0.291412 0.445111 -0.895475 11.7592 5.47278)" fill="black" fill-opacity="0.15"/>
</svg>
