<svg width="302" height="78" viewBox="0 0 302 78" fill="none" xmlns="http://www.w3.org/2000/svg">
<path d="M26.7488 21.2282C29.6465 16.002 28.9318 11.8048 28.2122 10.3595C27.3837 8.96727 26.4988 8.74813 26.1599 8.81259C24.6313 8.45472 20.8018 10.8832 19.0781 12.1421C18.1068 12.8512 15.4794 13.0289 14.287 13.0291C11.1199 12.9082 10.331 13.2462 9.64534 14.3106C7.96456 16.9198 10.4474 19.9585 12.2764 21.4331C15.8092 24.2605 19.6555 25.2087 21.137 25.3293C23.9949 25.4451 26.069 22.6435 26.7488 21.2282Z" fill="black" fill-opacity="0.15"/>
<ellipse rx="3.46018" ry="5.00706" transform="matrix(0.992181 0.124807 0.0271589 0.999631 21.2141 31.7678)" fill="black" fill-opacity="0.15"/>
<ellipse rx="3.14662" ry="4.08018" transform="matrix(0.899526 0.436868 -0.261967 0.965077 12.4713 28.1646)" fill="black" fill-opacity="0.15"/>
<ellipse rx="3.31247" ry="5.01751" transform="matrix(0.708057 -0.706155 0.627196 0.778862 29.6174 27.8585)" fill="black" fill-opacity="0.15"/>
<ellipse rx="3.31518" ry="3.94044" transform="matrix(0.0338966 -0.999425 0.980166 0.198178 33.6027 19.0179)" fill="black" fill-opacity="0.15"/>
<path d="M62.7488 56.2282C65.6465 51.002 64.9318 46.8049 64.2122 45.3596C63.3837 43.9673 62.4988 43.7482 62.1599 43.8126C60.6313 43.4548 56.8018 45.8832 55.0781 47.1422C54.1068 47.8512 51.4794 48.029 50.287 48.0292C47.1199 47.9083 46.331 48.2462 45.6453 49.3106C43.9646 51.9199 46.4474 54.9585 48.2764 56.4331C51.8092 59.2605 55.6555 60.2087 57.137 60.3293C59.9949 60.4451 62.069 57.6435 62.7488 56.2282Z" fill="black" fill-opacity="0.15"/>
<ellipse rx="3.46018" ry="5.00706" transform="matrix(0.992181 0.124807 0.0271589 0.999631 57.2141 66.7679)" fill="black" fill-opacity="0.15"/>
<ellipse rx="3.14662" ry="4.08018" transform="matrix(0.899526 0.436868 -0.261967 0.965077 48.4713 63.1646)" fill="black" fill-opacity="0.15"/>
<ellipse rx="3.31247" ry="5.01751" transform="matrix(0.708057 -0.706155 0.627196 0.778862 65.6174 62.8586)" fill="black" fill-opacity="0.15"/>
<ellipse rx="3.31518" ry="3.94044" transform="matrix(0.0338966 -0.999425 0.980166 0.198178 69.6027 54.018)" fill="black" fill-opacity="0.15"/>
<path d="M133.65 23.5212C137.802 19.2231 138.198 14.984 137.877 13.4017C137.437 11.8424 136.639 11.4017 136.295 11.3763C134.911 10.6349 130.583 11.9895 128.593 12.7595C127.471 13.193 124.887 12.6846 123.735 12.3762C120.707 11.4397 119.858 11.562 118.92 12.4127C116.621 14.4979 118.233 18.0757 119.618 19.9734C122.299 23.6188 125.768 25.5302 127.168 26.0302C129.899 26.8816 132.627 24.7123 133.65 23.5212Z" fill="black" fill-opacity="0.15"/>
<ellipse rx="3.46018" ry="5.00706" transform="matrix(0.926071 0.377349 -0.23249 0.972599 125.576 32.2692)" fill="black" fill-opacity="0.15"/>
<ellipse rx="3.14662" ry="4.08018" transform="matrix(0.755805 0.654796 -0.502821 0.864391 118.064 26.526)" fill="black" fill-opacity="0.15"/>
<ellipse rx="3.31247" ry="5.01751" transform="matrix(0.866697 -0.498835 0.40424 0.914653 134.705 30.6681)" fill="black" fill-opacity="0.15"/>
<ellipse rx="3.31518" ry="3.94044" transform="matrix(0.291412 -0.956598 0.895475 0.445111 140.843 23.1602)" fill="black" fill-opacity="0.15"/>
<path d="M183.65 56.5212C187.802 52.2231 188.198 47.984 187.877 46.4017C187.437 44.8424 186.639 44.4017 186.295 44.3763C184.911 43.6349 180.583 44.9895 178.592 45.7595C177.471 46.193 174.887 45.6846 173.735 45.3762C170.707 44.4397 169.858 44.562 168.92 45.4127C166.621 47.4979 168.233 51.0757 169.618 52.9734C172.299 56.6188 175.768 58.5302 177.168 59.0302C179.899 59.8816 182.627 57.7123 183.65 56.5212Z" fill="black" fill-opacity="0.15"/>
<ellipse rx="3.46018" ry="5.00706" transform="matrix(0.926071 0.377349 -0.23249 0.972599 175.576 65.2692)" fill="black" fill-opacity="0.15"/>
<ellipse rx="3.14662" ry="4.08018" transform="matrix(0.755805 0.654796 -0.502821 0.864391 168.064 59.526)" fill="black" fill-opacity="0.15"/>
<ellipse rx="3.31247" ry="5.01751" transform="matrix(0.866697 -0.498835 0.40424 0.914653 184.705 63.6681)" fill="black" fill-opacity="0.15"/>
<ellipse rx="3.31518" ry="3.94044" transform="matrix(0.291412 -0.956598 0.895475 0.445111 190.843 56.1602)" fill="black" fill-opacity="0.15"/>
<path d="M237.488 25.8151C243.233 24.1686 245.695 20.6954 246.208 19.1646C246.607 17.5943 246.136 16.8136 245.851 16.6195C245.023 15.2856 240.598 14.2949 238.489 13.9663C237.301 13.7809 235.317 12.0486 234.474 11.2057C232.32 8.88067 231.523 8.56181 230.286 8.82963C227.252 9.48614 226.859 13.3905 227.11 15.7264C227.609 20.2238 229.658 23.6139 230.62 24.7468C232.559 26.8496 236.007 26.3351 237.488 25.8151Z" fill="black" fill-opacity="0.15"/>
<ellipse rx="3.46018" ry="5.00706" transform="matrix(0.613326 0.78983 -0.687642 0.72605 226.122 29.354)" fill="black" fill-opacity="0.15"/>
<ellipse rx="3.14662" ry="4.08018" transform="matrix(0.327148 0.944973 -0.867651 0.497174 222.488 20.6242)" fill="black" fill-opacity="0.15"/>
<ellipse rx="3.31247" ry="5.01751" transform="matrix(0.999999 0.00134481 -0.107244 0.994233 234.828 32.5318)" fill="black" fill-opacity="0.15"/>
<ellipse rx="3.31518" ry="3.94044" transform="matrix(0.730669 -0.682732 0.552949 0.833215 243.898 29.0986)" fill="black" fill-opacity="0.15"/>
<path d="M286.488 59.8151C292.233 58.1686 294.695 54.6954 295.208 53.1646C295.607 51.5943 295.136 50.8136 294.851 50.6195C294.023 49.2856 289.598 48.2949 287.489 47.9663C286.301 47.7809 284.317 46.0487 283.474 45.2057C281.32 42.8807 280.523 42.5618 279.286 42.8297C276.252 43.4862 275.859 47.3905 276.11 49.7264C276.609 54.2238 278.658 57.614 279.62 58.7469C281.559 60.8496 285.007 60.3352 286.488 59.8151Z" fill="black" fill-opacity="0.15"/>
<ellipse rx="3.46018" ry="5.00706" transform="matrix(0.613326 0.78983 -0.687642 0.72605 275.122 63.3541)" fill="black" fill-opacity="0.15"/>
<ellipse rx="3.14662" ry="4.08018" transform="matrix(0.327148 0.944973 -0.867651 0.497174 271.488 54.6242)" fill="black" fill-opacity="0.15"/>
<ellipse rx="3.31247" ry="5.01751" transform="matrix(0.999999 0.00134481 -0.107244 0.994233 283.828 66.5318)" fill="black" fill-opacity="0.15"/>
<ellipse rx="3.31518" ry="3.94044" transform="matrix(0.730669 -0.682732 0.552949 0.833215 292.898 63.0986)" fill="black" fill-opacity="0.15"/>
</svg>
